<svg xmlns="http://www.w3.org/2000/svg" width="138" height="54" fill="none" viewBox="0 0 138 54">
  <rect width="138" height="54" fill="#F93" rx="4"/>
  <path fill="#fff" d="M24.32 39c.987 0 1.68-.28 2.08-.84.4-.56.6-1.187.6-1.88V17.96c0-.667-.2-1.28-.6-1.84-.4-.56-1.093-.84-2.08-.84h-9.36l-.04 26.08c0 .587-.227 1.053-.68 1.4-.453.347-1.013.52-1.68.52-1.573 0-2.36-.64-2.36-1.92V13.64c0-.96.24-1.6.72-1.92.507-.32 1.107-.48 1.8-.48h12.6c.693 0 1.413.147 2.16.44.747.293 1.467.667 2.16 1.12h-.04a4.945 4.945 0 011.6 2c.373.8.56 1.733.56 2.8v19c0 2.16-.72 3.773-2.16 4.84a9.615 9.615 0 01-2.16 1.2c-.72.267-1.427.4-2.12.4H18.6a1.26 1.26 0 01-1.08-.56c-.24-.373-.36-.867-.36-1.48 0-1.333.573-2 1.72-2h5.44zm18.417 2.32c0 1.28-.8 1.92-2.4 1.92-1.573 0-2.36-.64-2.36-1.92V12.96c0-1.28.787-1.92 2.36-1.92 1.6 0 2.4.64 2.4 1.92v28.36zm22.848-12.76c0-1.307.8-1.96 2.4-1.96 1.574 0 2.36.627 2.36 1.88v8.12c0 2.16-.72 3.773-2.16 4.84a9.615 9.615 0 01-2.16 1.2c-.72.267-1.426.4-2.12.4h-8.32c-.693 0-1.413-.133-2.16-.4a9.978 9.978 0 01-2.12-1.2 5.414 5.414 0 01-1.6-1.96c-.373-.8-.56-1.76-.56-2.88v-19c0-1.093.187-2.04.56-2.84.4-.8.934-1.453 1.6-1.96h-.04a11.874 11.874 0 012.16-1.12c.747-.293 1.467-.44 2.16-.44h7.92c.694 0 1.414.147 2.16.44.747.293 1.467.667 2.16 1.12h-.04c1.414 1.04 2.12 2.64 2.12 4.8v2.76c0 1.28-.786 1.92-2.36 1.92-1.573 0-2.36-.64-2.36-1.92v-2.4c0-.667-.2-1.28-.6-1.84-.4-.56-1.093-.84-2.08-.84h-5.88c-1.013 0-1.72.28-2.12.84-.4.56-.6 1.173-.6 1.84v18.32c0 .347.04.68.12 1 .107.32.267.613.48.88.214.24.494.44.84.6.347.16.774.24 1.28.24h6.28c.987 0 1.68-.28 2.08-.84.4-.56.6-1.187.6-1.88v-7.72zm-1.88-.44c0 .453-.093.893-.28 1.32-.16.4-.4.747-.72 1.04-.293.293-.64.533-1.04.72-.4.16-.84.24-1.32.24a3.16 3.16 0 01-2.32-.96c-.64-.64-.96-1.427-.96-2.36 0-.907.32-1.68.96-2.32a3.16 3.16 0 012.32-.96c.48 0 .92.093 1.32.28.4.16.747.387 1.04.68.32.293.56.64.72 1.04.187.4.28.827.28 1.28zM94.21 12.96c0-1.28.787-1.92 2.36-1.92s2.36.64 2.36 1.92v27.6c0 .933-.493 1.613-1.48 2.04h.04c-.427.187-.88.333-1.36.44-.48.107-.947.16-1.4.16-.347 0-.707-.04-1.08-.12a4.946 4.946 0 01-1.08-.28c-.32-.16-.627-.36-.92-.6a3.027 3.027 0 01-.64-.96L82.33 19.6l-1.08.12v21.6c0 1.28-.8 1.92-2.4 1.92-1.573 0-2.36-.64-2.36-1.92V13.76c0-1.093.48-1.827 1.44-2.2a7.569 7.569 0 012.8-.52c.693 0 1.387.147 2.08.44.72.267 1.267.787 1.64 1.56l8.64 21.68 1.12-.12V12.96zm21.199 2.2l-8.76 26.88V42c-.16.4-.387.733-.68 1-.267.24-.6.36-1 .36a2.64 2.64 0 01-.641-.08 5.982 5.982 0 01-.599-.12h.04c-1.52-.48-2.08-1.333-1.68-2.56l9.12-27.72a2.41 2.41 0 01.68-1.08 2.216 2.216 0 011.2-.52c.453-.08.893-.133 1.32-.16a8.59 8.59 0 011-.08c.24 0 .573.027 1 .08.426.027.866.067 1.32.12.373.053.733.253 1.08.6.373.347.653.693.84 1.04l4.52 13.88c1.546 4.64 3.066 9.253 4.56 13.84.373 1.227-.187 2.08-1.68 2.56a6.055 6.055 0 01-.6.12c-.16.053-.347.08-.56.08-.374 0-.72-.12-1.04-.36a2.303 2.303 0 01-.64-1v.04l-8.8-26.88zm3 18.24c0 .853-.307 1.587-.92 2.2-.587.587-1.307.88-2.16.88-.854 0-1.574-.293-2.16-.88a3.07 3.07 0 01-.88-2.2c0-.853.293-1.573.88-2.16a2.87 2.87 0 012.16-.92c.853 0 1.573.307 2.16.92.613.587.92 1.307.92 2.16z"/>
</svg>
